<?xml version="1.0" encoding="utf-8"?>
<!-- Generator: Adobe Illustrator 27.6.0, SVG Export Plug-In . SVG Version: 6.00 Build 0)  -->
<svg version="1.1" id="Layer_1" xmlns="http://www.w3.org/2000/svg" xmlns:xlink="http://www.w3.org/1999/xlink" x="0px" y="0px"
	 viewBox="0 0 192 192" enable-background="new 0 0 192 192" xml:space="preserve">
<g>
	<path fill="#EE7D07" d="M180,89.4v14.4h-32.8c-1.3,5.2-4,10.4-8.1,15.5c-4.1,5.2-10,9.5-17.5,13.1c-7.6,3.6-16.7,5.3-27.5,5.3
		c-13.2,0-24.2-2.6-33.1-7.9c-8.8-5.2-16.3-12-22.5-20.3c-3,4-5,7.8-6.2,11.3c-1.2,3.5-1.7,7.3-1.7,11.3H14.4c0-6.2,1.3-12.6,4-19
		c2.6-6.4,6.6-11.9,12-16.4C24.2,88.4,20,80.1,17.8,71.8c-2.2-8.3-3.4-17.4-3.4-27.3h16.2c0,7.1,0.6,13.6,1.9,19.3
		c1.2,5.8,3.6,12.6,7.1,20.5c5.8-6.3,13.4-11.6,22.7-16c9.3-4.3,19.8-6.5,31.4-6.5c10.2,0,19.1,1.5,26.7,4.4
		c7.6,3,13.5,6.6,17.9,10.8c4.4,4.2,7.3,8.3,8.8,12.2H180z M117.5,103.8c2-1.8,2.9-4.2,2.9-7.2c0-3-1-5.4-2.9-7.2
		c-2-1.8-4.5-2.6-7.6-2.6s-5.7,0.9-7.6,2.6c-2,1.8-2.9,4.2-2.9,7.2c0,3,1,5.4,2.9,7.2c2,1.8,4.5,2.6,7.6,2.6
		S115.6,105.6,117.5,103.8z"/>
</g>
</svg>
